<svg width="528" height="356" viewBox="0 0 528 356" fill="none" xmlns="http://www.w3.org/2000/svg">
<path d="M377.633 288.543C380.686 296.108 395.744 303.555 420.837 303.555C445.929 303.555 466.273 294.552 466.273 283.447C466.273 279.665 463.916 276.368 459.811 273.531L460.599 277.76L459.109 282.331L454.637 287.171L447.754 291.216L438.64 294.427L425.138 296.831L413.075 297.297L401.188 296.345L390.616 294.132L382.597 291.229L377.633 288.543Z" fill="#031B3E"/>
<path d="M367.06 195.629C367.06 195.629 368.255 204.251 365.116 213.301C359.961 228.155 349.047 239.923 349.047 239.923L360.079 234.985L371.164 226.211L376.503 219.539L381.369 210.917L384.206 203.785L386.616 194.742L387.463 187.453L382.597 191.255L371.735 194.696L367.06 195.629Z" fill="#031B3E"/>
<path d="M205.354 311.742L210.89 319.747H156.595L150.52 318.303L147.729 314.881L147.27 313.423L148.648 311.742H205.354Z" fill="#031B3E"/>
<path d="M434.744 248.563C435.145 251.374 434.744 258.801 431.802 265.946C429.615 271.252 424.092 279.822 415.168 280.662L423.941 280.787L430.226 278.528L435.617 274.89L440.858 268.402L444.161 261.375L447.372 249.726L448.443 241.215L443.248 245.083L437.154 247.985L434.744 248.563Z" fill="#FCD300"/>
<path d="M116.157 169.918C113.727 171.29 111.928 173.733 111.323 176.459C110.929 178.251 111.034 180.116 111.139 181.955C111.231 183.492 111.33 185.074 111.967 186.48C112.86 188.45 114.666 189.816 116.104 191.431C117.542 193.047 118.658 195.352 117.779 197.328C117.017 199.042 114.948 199.863 113.077 199.732C111.205 199.6 109.478 198.72 107.823 197.841C106.168 196.961 104.461 196.054 102.596 195.857C100.737 195.66 98.8724 196.199 97.0074 196.12C95.1424 196.041 93.0476 195.017 92.7652 193.171C92.5091 191.49 93.8882 189.973 95.3986 189.192C96.909 188.41 98.636 188.082 100.081 187.189C101.525 186.296 102.681 184.51 102.044 182.934C101.571 181.752 100.304 181.134 99.4306 180.208C98.5572 179.282 97.6576 176.997 98.8462 176.544L104.658 173.267L110.424 170.752L116.157 169.918Z" fill="#031B3E"/>
<path d="M76.5704 226.112C77.5029 226.992 77.956 228.279 78.8753 229.159C80.5236 230.736 83.098 230.598 85.3636 230.814C87.6291 231.031 90.3216 232.312 90.3019 234.59C90.2822 236.652 88.0297 237.933 86.0071 238.333C83.9845 238.734 81.7385 238.767 80.1756 240.106C78.7965 241.295 78.2319 243.305 76.6558 244.217C75.1323 245.104 73.1819 244.638 71.5862 243.889C69.9904 243.14 68.4668 242.116 66.7134 241.899C64.9666 241.683 63.7517 243.534 64.0998 246.424C63.0359 243.791 62.1298 238.143 62.2349 235.109C62.3399 232.115 65.1964 217.74 65.3606 220.773C65.5839 224.97 66.3654 224.116 68.8476 224.523C71.4022 224.95 74.4886 224.142 76.5704 226.112Z" fill="#031B3E"/>
<path d="M30.9519 207.967C30.5513 206.89 29.8815 205.925 29.5007 204.834C29.1198 203.744 28.8834 202.188 29.8553 201.564C32.2982 200.001 30.9192 198.412 31.1884 197.539C31.4511 196.665 32.0551 195.969 33.8676 196.803C32.633 193.907 23.9647 191.228 18.7505 191.582C13.543 191.937 8.49304 194.268 4.8484 198.005C3.67292 199.213 2.61562 200.605 2.19534 202.234C1.77506 203.863 2.11 205.767 3.37084 206.89C4.98631 208.328 7.53432 208.059 9.49126 207.126C11.4482 206.194 13.1162 204.723 15.106 203.876C18.5011 202.424 22.8943 202.799 25.5276 205.393C30.1704 209.976 27.176 221.337 28.3449 218.369C29.8159 214.639 30.4659 213.995 30.9322 212.662C31.4707 211.158 31.5167 209.471 30.9519 207.967Z" fill="#031B3E"/>
<path d="M186.587 247.973L147.094 311.744H356.618L331.316 247.973" fill="white"/>
<path d="M186.587 247.973L147.094 311.744H356.618L331.316 247.973" stroke="#031B3E" stroke-width="3" stroke-miterlimit="10" stroke-linecap="round" stroke-linejoin="round"/>
<path d="M147.094 311.742C147.094 316.162 150.679 319.747 155.099 319.747H348.435C352.855 319.747 356.624 316.162 356.624 311.742" stroke="#031B3E" stroke-width="3" stroke-miterlimit="10" stroke-linecap="round" stroke-linejoin="round"/>
<path d="M178.383 280.84L192.173 255.965L236.257 256.05" stroke="#031B3E" stroke-width="3" stroke-miterlimit="10" stroke-linecap="round" stroke-linejoin="round"/>
<path d="M231.556 294.925L234.347 285.632C234.846 283.958 236.389 282.809 238.136 282.809H269.407C271.318 282.809 272.954 284.175 273.302 286.053L274.97 295.154C275.416 297.578 273.564 299.817 271.095 299.83L235.364 300.021C232.705 300.034 230.794 297.473 231.556 294.925Z" stroke="#031B3E" stroke-width="3" stroke-miterlimit="10" stroke-linecap="round" stroke-linejoin="round"/>
<path d="M161.646 260.027H102.99L59.0312 311.742H125.154L153.043 269.819" stroke="#031B3E" stroke-width="3" stroke-miterlimit="10" stroke-linecap="round" stroke-linejoin="round"/>
<path d="M51.6406 319.316H114.624" stroke="#031B3E" stroke-width="3" stroke-miterlimit="10" stroke-linecap="round" stroke-linejoin="round"/>
<path d="M56.0742 333.105H119.058" stroke="#031B3E" stroke-width="3" stroke-miterlimit="10" stroke-linecap="round" stroke-linejoin="round"/>
<path d="M59.6094 325.697H124.07L144.92 294.012" stroke="#031B3E" stroke-width="3" stroke-miterlimit="10" stroke-linecap="round" stroke-linejoin="round"/>
<path d="M443.985 262.32C454.131 266.011 460.6 270.943 460.6 277.208C460.6 288.312 440.255 297.315 415.163 297.315C390.071 297.315 369.727 288.312 369.727 277.208C369.727 270.989 376.103 266.09 386.124 262.399" fill="white"/>
<path d="M443.985 262.32C454.131 266.011 460.6 270.943 460.6 277.208C460.6 288.312 440.255 297.315 415.163 297.315C390.071 297.315 369.727 288.312 369.727 277.208C369.727 270.989 376.103 266.09 386.124 262.399" stroke="#031B3E" stroke-width="3" stroke-miterlimit="10" stroke-linecap="round" stroke-linejoin="round"/>
<path d="M333.102 173.965C363.264 173.965 387.712 179.422 387.712 186.153C387.712 192.884 362.607 198.341 332.445 198.341" fill="white"/>
<path d="M333.102 173.965C363.264 173.965 387.712 179.422 387.712 186.153C387.712 192.884 362.607 198.341 332.445 198.341" stroke="#031B3E" stroke-width="3" stroke-miterlimit="10" stroke-linecap="round" stroke-linejoin="round"/>
<path d="M387.704 186.152C387.087 200.311 377.42 241.932 331.773 241.932" stroke="#031B3E" stroke-width="3" stroke-miterlimit="10" stroke-linecap="round" stroke-linejoin="round"/>
<path d="M345.906 181.727C349.787 156.05 354.174 99.5221 417.157 108.519C452.159 113.523 481.927 94.3867 481.927 94.3867" stroke="#031B3E" stroke-width="3" stroke-miterlimit="10" stroke-linecap="round" stroke-linejoin="round"/>
<path d="M404.044 142.036C409.094 151.578 419.292 157.58 429.825 159.951C451.45 164.81 474.631 155.715 490.425 140.171C506.218 124.627 515.412 103.449 520.593 81.8962C521.335 78.8163 527.055 69.8197 525.985 66.8383C524.383 62.3859 482.006 55.3921 450.406 61.6635C433.667 64.9864 424 72.4004 417.237 78.8098C408.384 87.2023 413.822 107.836 411.142 107.836C409.625 107.842 397.523 129.723 404.044 142.036Z" fill="#FCD300" stroke="#031B3E" stroke-width="3" stroke-miterlimit="10" stroke-linecap="round" stroke-linejoin="round"/>
<path d="M424.026 109.719C420.828 115.169 418.175 120.942 416.119 126.918C415.2 129.603 414.589 133.051 416.763 134.87C419.061 136.794 422.732 135.205 424.466 132.762C426.2 130.319 426.83 127.252 428.426 124.718C430.028 122.183 433.39 120.219 435.971 121.743C437.606 122.708 438.302 124.75 438.361 126.642C438.421 128.54 437.981 130.418 437.941 132.316C437.836 137.346 440.831 142.317 445.322 144.583C449.814 146.848 455.593 146.283 459.573 143.203" stroke="#031B3E" stroke-width="3" stroke-miterlimit="10" stroke-linecap="round" stroke-linejoin="round"/>
<path d="M433.66 107.842C437.738 105.34 439.531 100.396 440.68 95.7527C441.829 91.1099 442.742 86.1388 445.888 82.5401C447.037 81.2267 448.547 80.1037 450.288 79.9396C452.028 79.7754 453.945 80.8393 454.287 82.5532C454.563 83.9388 453.808 85.2851 453.262 86.5853C452.717 87.8856 452.428 89.5601 453.414 90.5649C454.234 91.4054 455.659 91.3792 456.69 90.8078C457.721 90.2365 458.437 89.2515 459.094 88.273C462.922 82.5598 465.667 76.1242 467.138 69.4062" stroke="#031B3E" stroke-width="3" stroke-miterlimit="10" stroke-linecap="round" stroke-linejoin="round"/>
<path d="M446.582 107.84C446.805 113.277 449.583 118.55 453.931 121.821C458.284 125.085 464.122 126.28 469.402 124.973" stroke="#031B3E" stroke-width="3" stroke-miterlimit="10" stroke-linecap="round" stroke-linejoin="round"/>
<path d="M461.543 104.398C466.79 106.742 472.208 109.133 477.954 109.244C483.7 109.362 489.899 106.617 492.086 101.305C492.867 99.4136 493.097 97.3187 494.003 95.48C495.258 92.9255 497.668 91.159 500.019 89.5566C502.37 87.9543 504.845 86.3388 506.356 83.9288C507.866 81.5187 508.122 78.0448 506.119 76.0156" stroke="#031B3E" stroke-width="3" stroke-miterlimit="10" stroke-linecap="round" stroke-linejoin="round"/>
<path d="M285.308 145.396C275.418 138.054 269.514 122.563 267.964 111.392C267.268 106.375 267.636 100.57 271.491 97.2865C275.411 93.9505 281.394 94.6204 286.109 96.6889C290.824 98.7575 295.014 101.988 299.939 103.492C307.957 105.942 316.527 103.446 324.847 102.409C333.168 101.371 343.031 102.56 347.523 109.639C349.802 113.224 350.189 117.94 348.541 121.853C346.892 125.767 343.241 128.775 339.084 129.648C341.337 135.263 334.927 144.424 329.359 146.775" fill="#FCD300"/>
<path d="M341.578 132.918C346.161 139.945 345.905 150.682 343.521 158.719C341.138 166.757 337.723 174.822 338.425 183.181" stroke="#031B3E" stroke-width="3" stroke-miterlimit="10" stroke-linecap="round" stroke-linejoin="round"/>
<path d="M285.309 113.711C289.525 119.326 296.709 121.913 303.663 122.852C310.624 123.791 317.716 123.391 324.651 124.481C329.852 125.302 336.11 127.153 340.05 130.516" stroke="white" stroke-width="3" stroke-miterlimit="10" stroke-linecap="round" stroke-linejoin="round"/>
<path d="M353.296 183.984C351.976 176.583 355.377 169.116 359.79 163.035C364.203 156.954 369.713 151.668 373.607 145.239C379.839 134.942 381.441 121.952 377.882 110.454C375.827 103.815 372.202 97.7928 368.886 91.679C365.576 85.5652 362.023 79.1756 361.734 72.2278C360.394 39.8791 372.812 40.7 377.337 23.8164" stroke="#031B3E" stroke-width="3" stroke-miterlimit="10" stroke-linecap="round" stroke-linejoin="round"/>
<path d="M351.586 92.4281C341.283 86.7871 335.517 65.333 337.06 54.491C338.636 43.4191 344.875 33.4243 352.709 25.4455C360.543 17.4667 369.96 11.2412 379.299 5.08146C382.07 3.25586 385.59 1.37773 388.499 2.97349C390.16 3.88629 391.08 5.70533 391.815 7.45213C395.992 17.4076 397.134 28.6107 395.072 39.2032C393.568 46.8996 390.43 54.2414 389.346 62.0101C388.413 68.669 392.754 76.0239 387.711 87.1614C384.486 94.28 368.897 91.6795 368.897 91.6795C368.897 91.6795 359.755 96.9002 351.586 92.4281Z" fill="#FCD300" stroke="#031B3E" stroke-width="3" stroke-miterlimit="10" stroke-linecap="round" stroke-linejoin="round"/>
<path d="M346.293 47.0039C348.88 49.5256 348.959 53.6562 348.289 57.2089C347.613 60.7616 346.359 64.3209 346.904 67.8933C347.501 71.8137 350.24 75.1563 353.523 77.3759C356.807 79.6021 360.629 80.8761 364.391 82.1304" stroke="#031B3E" stroke-width="3" stroke-miterlimit="10" stroke-linecap="round" stroke-linejoin="round"/>
<path d="M361.719 70.8948C361.87 65.3654 365.823 60.1381 371.103 58.4898C373.27 57.8135 375.739 57.623 377.381 56.0601C378.524 54.97 379.049 53.4136 379.751 52.0017C382.07 47.3326 386.772 43.9244 391.933 43.1758" stroke="#031B3E" stroke-width="3" stroke-miterlimit="10" stroke-linecap="round" stroke-linejoin="round"/>
<path d="M204.41 345.031H518.073L475.414 289.344" stroke="#031B3E" stroke-width="3" stroke-miterlimit="10" stroke-linecap="round" stroke-linejoin="round"/>
<path d="M155.559 354.159H518.072V345.031" stroke="#031B3E" stroke-width="3" stroke-miterlimit="10" stroke-linecap="round" stroke-linejoin="round"/>
<path d="M326.762 145.961H191.129C188.62 145.961 186.578 147.997 186.578 150.512V247.978H331.307V150.505C331.313 147.997 329.277 145.961 326.762 145.961Z" fill="white" stroke="#031B3E" stroke-width="3" stroke-miterlimit="10" stroke-linecap="round" stroke-linejoin="round"/>
<path d="M299.755 152.75H193.738V191.206" stroke="#031B3E" stroke-width="3" stroke-miterlimit="10" stroke-linecap="round" stroke-linejoin="round"/>
<path d="M193.738 239.192H323.927V192.402" stroke="#031B3E" stroke-width="3" stroke-miterlimit="10" stroke-linecap="round" stroke-linejoin="round"/>
<path d="M93.4688 218.323C99.0441 216.543 105.401 217.377 110.326 220.542C114.982 223.53 118.233 228.396 119.979 233.643C121.726 238.89 122.074 244.518 121.792 250.041" stroke="#031B3E" stroke-width="3" stroke-miterlimit="10" stroke-linecap="round" stroke-linejoin="round"/>
<path d="M104.652 250.237C112.474 249.744 124.741 250.204 128.32 251.458C131.905 252.713 135.116 255.838 135.248 259.634" stroke="#031B3E" stroke-width="3" stroke-miterlimit="10" stroke-linecap="round" stroke-linejoin="round"/>
<path d="M51.3405 271.115C41.5032 271.279 28.2971 267.51 22.7152 258.369C17.5864 249.976 17.3566 241.301 21.2376 232.265C22.9056 228.378 24.9742 223.321 26.7932 219.499C28.6123 215.677 29.4594 210.982 27.3383 207.317C24.5934 202.57 17.58 201.591 12.819 204.323C10.7044 205.544 8.91158 207.344 6.35048 207.711C5.24067 207.869 4.07831 207.639 3.21804 206.917C0.906488 204.993 2.27248 201.539 4.11122 199.398C10.8948 191.478 23.569 189.403 32.5197 194.748C41.4704 200.094 45.66 212.236 41.9037 221.962C39.8351 227.314 35.7506 231.786 34.2665 237.322C32.1716 245.13 36.1315 254.573 43.6112 257.633C49.8235 260.175 55.0048 258.441 58.5904 256.129C61.9329 253.975 63.6402 250.055 63.1018 246.121C60.7114 228.66 65.3215 210.286 75.822 196.114C87.3469 180.564 105.997 168.461 128.745 168.461" stroke="#031B3E" stroke-width="3" stroke-miterlimit="10" stroke-linecap="round" stroke-linejoin="round"/>
<path d="M70.3125 262.203C78.357 266.642 84.3395 267.089 93.4675 266.019" stroke="#031B3E" stroke-width="3" stroke-miterlimit="10" stroke-linecap="round" stroke-linejoin="round"/>
<path d="M169 81.3516C176.736 93.1852 184.472 105.019 192.208 116.852" stroke="#031B3E" stroke-width="3" stroke-miterlimit="10" stroke-linecap="round" stroke-linejoin="round"/>
<path d="M208.289 59.0938C210.023 70.3757 211.756 81.6642 213.49 92.9462" stroke="#031B3E" stroke-width="3" stroke-miterlimit="10" stroke-linecap="round" stroke-linejoin="round"/>
<path d="M260.548 55.9492C254.75 72.5438 248.951 89.145 243.152 105.74" stroke="#031B3E" stroke-width="3" stroke-miterlimit="10" stroke-linecap="round" stroke-linejoin="round"/>
<path d="M138.419 134.077C142.944 132.231 147.652 131.791 151.27 131.791C165.744 131.791 177.486 142.66 177.486 156.069C177.486 169.479 165.75 180.347 151.27 180.347C136.797 180.347 125.055 169.479 125.055 156.069C125.055 151.867 125.029 149.647 127.551 144.649L123.965 126.669C123.801 125.835 124.681 125.192 125.423 125.605C128.739 127.457 135.543 131.404 138.419 134.077ZM138.419 134.077C138.99 134.609 140.993 135.075 140.993 135.075" stroke="#031B3E" stroke-width="3" stroke-miterlimit="10" stroke-linecap="round" stroke-linejoin="round"/>
<path d="M159.426 132.317C163.353 127.582 167.391 124.318 172.645 121.127C173.19 120.792 173.919 120.477 174.425 120.871C174.845 121.199 174.838 121.829 174.792 122.368C174.208 128.863 173.617 135.364 173.032 141.859" stroke="#031B3E" stroke-width="3" stroke-miterlimit="10" stroke-linecap="round" stroke-linejoin="round"/>
<path d="M154.73 160.992C156.09 160.808 157.449 160.617 158.809 160.434C159.019 161.373 158.408 162.423 157.489 162.712C156.569 163.001 155.473 162.489 155.105 161.596" stroke="#031B3E" stroke-width="3" stroke-miterlimit="10" stroke-linecap="round" stroke-linejoin="round"/>
<path d="M157.168 162.406C158.238 164.836 157.529 167.922 155.513 169.643C153.497 171.364 150.332 171.58 148.105 170.142" stroke="#031B3E" stroke-width="3" stroke-miterlimit="10" stroke-linecap="round" stroke-linejoin="round"/>
<path d="M157.586 162.93C157.744 164.315 158.197 165.701 159.09 166.771C159.983 167.842 161.355 168.558 162.747 168.452C164.14 168.347 165.466 167.31 165.709 165.937" stroke="#031B3E" stroke-width="3" stroke-miterlimit="10" stroke-linecap="round" stroke-linejoin="round"/>
<path d="M143.533 148.574C143.297 149.71 143.592 150.951 144.321 151.858C144.709 150.82 144.617 149.612 144.072 148.64C143.638 149.251 143.888 150.236 144.564 150.564" stroke="#031B3E" stroke-width="3" stroke-miterlimit="10" stroke-linecap="round" stroke-linejoin="round"/>
<path d="M158.676 146.566C158.952 147.781 159.221 149.003 159.497 150.218C160.403 149.311 160.396 147.65 159.477 146.75C159.444 147.899 159.405 149.049 159.372 150.198C159.497 150.04 159.628 149.876 159.753 149.719" stroke="#031B3E" stroke-width="3" stroke-miterlimit="10" stroke-linecap="round" stroke-linejoin="round"/>
<path d="M144.972 192.402L171.844 248.681C172.382 249.804 172.605 251.045 172.376 252.247C171.923 254.65 170.248 255.287 168.521 255.248C166.098 255.195 163.931 253.842 162.801 251.886L130.531 196.27" stroke="#031B3E" stroke-width="3" stroke-miterlimit="10" stroke-linecap="round" stroke-linejoin="round"/>
<path d="M166.063 183.191C166.352 197.474 165.512 214.043 163.41 231.025" stroke="#031B3E" stroke-width="3" stroke-miterlimit="10" stroke-linecap="round" stroke-linejoin="round"/>
<path d="M150.743 240.211C150.48 246.404 150.474 246.995 150.218 253.187C150.146 254.914 149.981 256.812 150.848 258.303C151.715 259.8 155.524 260.043 156.719 258.795C158.728 256.7 159.97 247.001 159.97 247.001" stroke="#031B3E" stroke-width="3" stroke-miterlimit="10" stroke-linecap="round" stroke-linejoin="round"/>
<path d="M135.245 160.442L106.719 158.078" stroke="#031B3E" stroke-width="3" stroke-miterlimit="10" stroke-linecap="round" stroke-linejoin="round"/>
<path d="M134.05 169.918L118.086 178.238" stroke="#031B3E" stroke-width="3" stroke-miterlimit="10" stroke-linecap="round" stroke-linejoin="round"/>
<path d="M138.668 171.094L121.883 185.784" stroke="#031B3E" stroke-width="3" stroke-miterlimit="10" stroke-linecap="round" stroke-linejoin="round"/>
<path d="M176.348 146.774L198.143 133.699" stroke="#031B3E" stroke-width="3" stroke-miterlimit="10" stroke-linecap="round" stroke-linejoin="round"/>
<path d="M177.484 152.905L186.586 150.508" stroke="#031B3E" stroke-width="3" stroke-miterlimit="10" stroke-linecap="round" stroke-linejoin="round"/>
<path d="M177.484 160.441L203.312 164.171" stroke="#031B3E" stroke-width="3" stroke-miterlimit="10" stroke-linecap="round" stroke-linejoin="round"/>
<path d="M382.594 239.921C382.594 239.921 382.646 264.461 395.091 274.088C408.139 284.182 426.487 284.063 436.705 273.839C447.291 263.253 448.709 239.914 448.709 239.914" fill="white"/>
<path d="M382.594 239.921C382.594 239.921 382.646 264.461 395.091 274.088C408.139 284.182 426.487 284.063 436.705 273.839C447.291 263.253 448.709 239.914 448.709 239.914" stroke="#031B3E" stroke-width="3" stroke-miterlimit="10" stroke-linecap="round" stroke-linejoin="round"/>
<path d="M447.85 247.013C463.794 246.507 462.691 261.283 445.203 260.757" stroke="#031B3E" stroke-width="3" stroke-miterlimit="10" stroke-linecap="round" stroke-linejoin="round"/>
<path d="M415.652 249.711C433.909 249.711 448.709 245.328 448.709 239.92C448.709 234.513 433.909 230.129 415.652 230.129C397.394 230.129 382.594 234.513 382.594 239.92C382.594 245.328 397.394 249.711 415.652 249.711Z" fill="#3E8BD1" stroke="#031B3E" stroke-width="3" stroke-miterlimit="10" stroke-linecap="round" stroke-linejoin="round"/>
<path d="M392.754 239.868C401.803 236.545 425.457 235.304 434.743 238.135" stroke="white" stroke-width="3" stroke-miterlimit="10" stroke-linecap="round" stroke-linejoin="round"/>
</svg>
